<?xml version="1.0" encoding="utf-8"?>
<!-- Generator: Adobe Illustrator 27.0.0, SVG Export Plug-In . SVG Version: 6.00 Build 0)  -->
<svg version="1.1" id="Layer_1" xmlns="http://www.w3.org/2000/svg" xmlns:xlink="http://www.w3.org/1999/xlink" x="0px" y="0px"
	 viewBox="0 0 350 350" style="enable-background:new 0 0 350 350;" xml:space="preserve">
<style type="text/css">
	.st0{fill:#FFFFFF;}
	.st1{font-family:'Arial-BoldMT';}
	.st2{font-size:32.32px;}
	.st3{letter-spacing:-2;}
	.st4{letter-spacing:-1;}
	.st5{fill:url(#SVGID_1_);}
	.st6{fill:url(#SVGID_00000064336905596342627580000005798097676776597395_);}
	.st7{fill:url(#SVGID_00000152949652608218846120000014845346174507368841_);}
	.st8{fill:url(#SVGID_00000069382550938925292200000003060892119542255495_);}
	.st9{fill:url(#SVGID_00000085211623042842767270000009105153876905701051_);}
	.st10{fill:url(#SVGID_00000016791316048950248810000000916100315438090137_);}
	.st11{fill:url(#SVGID_00000129171631942265309950000001262638247375438509_);}
	.st12{fill:url(#SVGID_00000052085215765801627880000002286068940645840801_);}
	.st13{fill:url(#SVGID_00000009591771754897134430000010098951881750482853_);}
	.st14{fill:url(#SVGID_00000134210296867452177160000016691627710559564698_);}
	.st15{fill:url(#SVGID_00000048470848074349910040000008364392235502490243_);}
	.st16{fill:url(#SVGID_00000071526314710550974540000005272903867270807982_);}
	.st17{fill:url(#SVGID_00000111190838113348371260000011114631728425878921_);}
	.st18{fill:url(#SVGID_00000070806514555925670960000000430821968463604668_);}
	.st19{fill:url(#SVGID_00000066483459609044096370000015213940974179081909_);}
	.st20{fill:url(#SVGID_00000128443853960526534090000016163236786323064492_);}
	.st21{fill:url(#SVGID_00000120524839721029585670000002020858496873175484_);}
	.st22{opacity:0.48;fill:url(#SVGID_00000055680517568791772080000010151240566856509092_);enable-background:new    ;}
	.st23{fill:url(#SVGID_00000183945489798340503800000016401211060220408460_);}
	.st24{fill:url(#SVGID_00000071525688930101566960000001236453277934995866_);}
	.st25{opacity:0.48;fill:url(#SVGID_00000016043752024646375610000013440661813468376725_);enable-background:new    ;}
	.st26{fill:url(#SVGID_00000044888139444962778020000018310088540032723350_);}
	.st27{opacity:0.48;fill:url(#SVGID_00000026145660987693296400000016755120636784074120_);enable-background:new    ;}
	.st28{fill:url(#SVGID_00000080917635472467093230000008419518409617765535_);}
	.st29{fill:url(#SVGID_00000026868098301006779090000004935909535453709466_);}
	.st30{opacity:0.48;fill:url(#SVGID_00000168795270309122284560000008290616339583362960_);enable-background:new    ;}
	.st31{fill:url(#SVGID_00000145780412427023471260000007224909367825936019_);}
	.st32{fill:url(#SVGID_00000094586930432440860870000007161952103425830060_);}
	.st33{fill:url(#SVGID_00000106858431539574895960000003479444641463528877_);}
	.st34{fill:url(#SVGID_00000054959088535109511640000013300727538664453305_);}
	.st35{fill:url(#SVGID_00000042738193523472576410000008959455487329643180_);}
	.st36{fill:url(#SVGID_00000147193762279433994690000003541590138272057008_);}
	.st37{opacity:0.68;fill:url(#SVGID_00000077305659608909004440000006943108695065686919_);enable-background:new    ;}
	.st38{fill:url(#SVGID_00000000911403178815256780000009958321956996257432_);}
	.st39{opacity:0.68;fill:url(#SVGID_00000134247788203805361500000008906362478864267199_);enable-background:new    ;}
	.st40{fill:url(#SVGID_00000049928800380959148300000009143913237803319183_);}
	.st41{opacity:0.68;fill:url(#SVGID_00000000933815084397021630000015404001848533781691_);enable-background:new    ;}
	.st42{fill:url(#SVGID_00000129920699936811202920000006743569562538113429_);}
	.st43{fill:url(#SVGID_00000036214125898108026170000010865921196270236310_);}
	.st44{fill:url(#SVGID_00000039835387094926710240000016959566561938412452_);}
</style>
<g>
	<g id="OBJECTS">
		<g>
			<g>
				<text transform="matrix(1 0 0 1 35.01 325.845)" class="st0 st1 st2">CLI</text>
				<text transform="matrix(1 0 0 1 76.74 325.845)" class="st0 st1 st2">M</text>
				<text transform="matrix(1 0 0 1 102.4 325.845)" class="st0 st1 st2 st3">A</text>
				<text transform="matrix(1 0 0 1 119.7 325.845)" class="st0 st1 st2">TE SO</text>
				<text transform="matrix(1 0 0 1 196.72 325.845)" class="st0 st1 st2 st4">L</text>
				<text transform="matrix(1 0 0 1 210.81 325.845)" class="st0 st1 st2">UTIONS</text>
				<g>
					
						<linearGradient id="SVGID_1_" gradientUnits="userSpaceOnUse" x1="135.2951" y1="-136.5193" x2="32.1551" y2="64.5906" gradientTransform="matrix(1 0 0 -1 0 352.15)">
						<stop  offset="0" style="stop-color:#104139"/>
						<stop  offset="1" style="stop-color:#31C4AB"/>
					</linearGradient>
					<path class="st5" d="M52.7,325.1c-1,0.5-3.1,1-5.8,1c-6.1,0-10.8-3.9-10.8-11c0-7.1,4.6-11.4,11.4-11.4c2.7,0,4.4,0.6,5.2,1
						L52,307c-1.1-0.5-2.6-0.9-4.4-0.9c-5.1,0-8.5,3.3-8.5,9c0,5.3,3.1,8.8,8.4,8.8c1.7,0,3.5-0.4,4.6-0.9L52.7,325.1L52.7,325.1z"
						/>
					
						<linearGradient id="SVGID_00000179614982012427212630000011806990025016849077_" gradientUnits="userSpaceOnUse" x1="144.3333" y1="-131.8949" x2="41.1934" y2="69.2151" gradientTransform="matrix(1 0 0 -1 0 352.15)">
						<stop  offset="0" style="stop-color:#104139"/>
						<stop  offset="1" style="stop-color:#31C4AB"/>
					</linearGradient>
					<path style="fill:url(#SVGID_00000179614982012427212630000011806990025016849077_);" d="M56.2,304.1H59v19.4h9.3v2.4H56.2
						V304.1z"/>
					
						<linearGradient id="SVGID_00000134928355035218753680000011630472538983237296_" gradientUnits="userSpaceOnUse" x1="156.4155" y1="-125.6985" x2="53.2755" y2="75.4115" gradientTransform="matrix(1 0 0 -1 0 352.15)">
						<stop  offset="0" style="stop-color:#104139"/>
						<stop  offset="1" style="stop-color:#31C4AB"/>
					</linearGradient>
					<path style="fill:url(#SVGID_00000134928355035218753680000011630472538983237296_);" d="M74.3,304.1v21.8h-2.8v-21.8H74.3z"/>
					
						<linearGradient id="SVGID_00000057858694036463981090000015322450269172591007_" gradientUnits="userSpaceOnUse" x1="169.234" y1="-119.1245" x2="66.094" y2="81.9855" gradientTransform="matrix(1 0 0 -1 0 352.15)">
						<stop  offset="0" style="stop-color:#104139"/>
						<stop  offset="1" style="stop-color:#31C4AB"/>
					</linearGradient>
					<path style="fill:url(#SVGID_00000057858694036463981090000015322450269172591007_);" d="M97.5,316.3c-0.2-3-0.4-6.7-0.3-9.4
						h-0.1c-0.7,2.5-1.7,5.3-2.8,8.3l-3.8,10.6h-2.1l-3.5-10.4c-1-3.1-1.9-5.9-2.5-8.5h-0.1c-0.1,2.7-0.2,6.4-0.4,9.6l-0.6,9.3h-2.7
						l1.5-21.8h3.6l3.7,10.5c0.9,2.7,1.7,5.1,2.2,7.3h0.1c0.5-2.2,1.3-4.6,2.3-7.3l3.9-10.5h3.6l1.4,21.8h-2.8L97.5,316.3
						L97.5,316.3z"/>
					
						<linearGradient id="SVGID_00000108997694090341186240000004788937246280055454_" gradientUnits="userSpaceOnUse" x1="184.7048" y1="-111.1902" x2="81.5649" y2="89.9198" gradientTransform="matrix(1 0 0 -1 0 352.15)">
						<stop  offset="0" style="stop-color:#104139"/>
						<stop  offset="1" style="stop-color:#31C4AB"/>
					</linearGradient>
					<path style="fill:url(#SVGID_00000108997694090341186240000004788937246280055454_);" d="M108.4,319l-2.3,6.9h-2.9l7.4-21.8
						h3.4l7.4,21.8h-3l-2.3-6.9H108.4L108.4,319z M115.5,316.8l-2.1-6.3c-0.5-1.4-0.8-2.7-1.1-4h-0.1c-0.3,1.3-0.7,2.6-1.1,3.9
						l-2.1,6.3L115.5,316.8L115.5,316.8z"/>
					
						<linearGradient id="SVGID_00000061436880580752828640000005398089178337052600_" gradientUnits="userSpaceOnUse" x1="202.4758" y1="-102.0763" x2="99.3358" y2="99.0337" gradientTransform="matrix(1 0 0 -1 0 352.15)">
						<stop  offset="0" style="stop-color:#104139"/>
						<stop  offset="1" style="stop-color:#31C4AB"/>
					</linearGradient>
					<path style="fill:url(#SVGID_00000061436880580752828640000005398089178337052600_);" d="M126.3,306.5h-6.6v-2.4h16.1v2.4h-6.7
						v19.4h-2.8L126.3,306.5L126.3,306.5z"/>
					
						<linearGradient id="SVGID_00000087371445492014980540000002612182936902524074_" gradientUnits="userSpaceOnUse" x1="212.8082" y1="-96.7773" x2="109.6682" y2="104.3327" gradientTransform="matrix(1 0 0 -1 0 352.15)">
						<stop  offset="0" style="stop-color:#104139"/>
						<stop  offset="1" style="stop-color:#31C4AB"/>
					</linearGradient>
					<path style="fill:url(#SVGID_00000087371445492014980540000002612182936902524074_);" d="M149.5,315.6H141v7.8h9.4v2.4h-12.2
						v-21.8H150v2.4H141v6.9h8.5V315.6L149.5,315.6z"/>
					
						<linearGradient id="SVGID_00000006700498957968939390000013064840119696233647_" gradientUnits="userSpaceOnUse" x1="230.2403" y1="-87.8371" x2="127.1003" y2="113.2729" gradientTransform="matrix(1 0 0 -1 0 352.15)">
						<stop  offset="0" style="stop-color:#104139"/>
						<stop  offset="1" style="stop-color:#31C4AB"/>
					</linearGradient>
					<path style="fill:url(#SVGID_00000006700498957968939390000013064840119696233647_);" d="M160.6,322.4c1.3,0.8,3.1,1.4,5,1.4
						c2.9,0,4.6-1.5,4.6-3.7c0-2-1.2-3.2-4.1-4.3c-3.6-1.3-5.8-3.1-5.8-6.2c0-3.4,2.8-5.9,7-5.9c2.2,0,3.9,0.5,4.8,1.1l-0.8,2.3
						c-0.7-0.4-2.2-1-4.1-1c-3,0-4.1,1.8-4.1,3.3c0,2,1.3,3,4.3,4.2c3.7,1.4,5.6,3.2,5.6,6.4c0,3.4-2.5,6.3-7.6,6.3
						c-2.1,0-4.4-0.6-5.6-1.4L160.6,322.4L160.6,322.4z"/>
					
						<linearGradient id="SVGID_00000004515513144533847270000008413097529982065033_" gradientUnits="userSpaceOnUse" x1="245.6565" y1="-79.9309" x2="142.5166" y2="121.1791" gradientTransform="matrix(1 0 0 -1 0 352.15)">
						<stop  offset="0" style="stop-color:#104139"/>
						<stop  offset="1" style="stop-color:#31C4AB"/>
					</linearGradient>
					<path style="fill:url(#SVGID_00000004515513144533847270000008413097529982065033_);" d="M195.5,314.7
						c0,7.5-4.6,11.5-10.1,11.5s-9.8-4.5-9.8-11c0-6.9,4.3-11.4,10.1-11.4S195.5,308.3,195.5,314.7z M178.6,315.1
						c0,4.7,2.5,8.8,6.9,8.8s7-4.1,7-9c0-4.3-2.3-8.9-6.9-8.9S178.6,310.3,178.6,315.1L178.6,315.1z"/>
					
						<linearGradient id="SVGID_00000021814427482202448750000015459966682647676603_" gradientUnits="userSpaceOnUse" x1="257.5304" y1="-73.8413" x2="154.3904" y2="127.2687" gradientTransform="matrix(1 0 0 -1 0 352.15)">
						<stop  offset="0" style="stop-color:#104139"/>
						<stop  offset="1" style="stop-color:#31C4AB"/>
					</linearGradient>
					<path style="fill:url(#SVGID_00000021814427482202448750000015459966682647676603_);" d="M199.2,304.1h2.8v19.4h9.3v2.4h-12.1
						V304.1z"/>
					
						<linearGradient id="SVGID_00000111897384181866212580000016423009539354997681_" gradientUnits="userSpaceOnUse" x1="275.026" y1="-64.8686" x2="171.886" y2="136.2414" gradientTransform="matrix(1 0 0 -1 0 352.15)">
						<stop  offset="0" style="stop-color:#104139"/>
						<stop  offset="1" style="stop-color:#31C4AB"/>
					</linearGradient>
					<path style="fill:url(#SVGID_00000111897384181866212580000016423009539354997681_);" d="M216.1,304.1V317c0,4.9,2.2,7,5.1,7
						c3.2,0,5.3-2.1,5.3-7v-12.9h2.8v12.7c0,6.7-3.5,9.4-8.2,9.4c-4.5,0-7.8-2.5-7.8-9.3v-12.8H216.1L216.1,304.1z"/>
					
						<linearGradient id="SVGID_00000013913850238280950320000004213953786278178963_" gradientUnits="userSpaceOnUse" x1="291.176" y1="-56.5861" x2="188.036" y2="144.5239" gradientTransform="matrix(1 0 0 -1 0 352.15)">
						<stop  offset="0" style="stop-color:#104139"/>
						<stop  offset="1" style="stop-color:#31C4AB"/>
					</linearGradient>
					<path style="fill:url(#SVGID_00000013913850238280950320000004213953786278178963_);" d="M238.3,306.5h-6.6v-2.4h16.1v2.4h-6.7
						v19.4h-2.8L238.3,306.5L238.3,306.5z"/>
					
						<linearGradient id="SVGID_00000052783513250597244480000013394386262486173366_" gradientUnits="userSpaceOnUse" x1="297.9652" y1="-53.1042" x2="194.8253" y2="148.0058" gradientTransform="matrix(1 0 0 -1 0 352.15)">
						<stop  offset="0" style="stop-color:#104139"/>
						<stop  offset="1" style="stop-color:#31C4AB"/>
					</linearGradient>
					<path style="fill:url(#SVGID_00000052783513250597244480000013394386262486173366_);" d="M253.1,304.1v21.8h-2.8v-21.8H253.1z"
						/>
					
						<linearGradient id="SVGID_00000145042349606358522100000007428930857038734260_" gradientUnits="userSpaceOnUse" x1="309.844" y1="-47.0121" x2="206.704" y2="154.0979" gradientTransform="matrix(1 0 0 -1 0 352.15)">
						<stop  offset="0" style="stop-color:#104139"/>
						<stop  offset="1" style="stop-color:#31C4AB"/>
					</linearGradient>
					<path style="fill:url(#SVGID_00000145042349606358522100000007428930857038734260_);" d="M276.6,314.7
						c0,7.5-4.6,11.5-10.1,11.5s-9.8-4.5-9.8-11c0-6.9,4.3-11.4,10.1-11.4C272.6,303.7,276.6,308.3,276.6,314.7z M259.7,315.1
						c0,4.7,2.5,8.8,7,8.8s7-4.1,7-9c0-4.3-2.3-8.9-7-8.9S259.7,310.3,259.7,315.1L259.7,315.1z"/>
					
						<linearGradient id="SVGID_00000019675157016179860900000015864101641680154275_" gradientUnits="userSpaceOnUse" x1="327.066" y1="-38.1797" x2="223.9261" y2="162.9303" gradientTransform="matrix(1 0 0 -1 0 352.15)">
						<stop  offset="0" style="stop-color:#104139"/>
						<stop  offset="1" style="stop-color:#31C4AB"/>
					</linearGradient>
					<path style="fill:url(#SVGID_00000019675157016179860900000015864101641680154275_);" d="M280.2,325.8v-21.8h3.1l7,11
						c1.6,2.5,2.9,4.9,3.9,7.1l0.1,0c-0.3-2.9-0.3-5.6-0.3-9v-9.1h2.6v21.8h-2.8l-6.9-11c-1.5-2.4-3-4.9-4.1-7.3l-0.1,0
						c0.2,2.8,0.2,5.4,0.2,9v9.3L280.2,325.8L280.2,325.8z"/>
					
						<linearGradient id="SVGID_00000134941841279282059960000004908310761293319351_" gradientUnits="userSpaceOnUse" x1="341.5213" y1="-30.7663" x2="238.3813" y2="170.3437" gradientTransform="matrix(1 0 0 -1 0 352.15)">
						<stop  offset="0" style="stop-color:#104139"/>
						<stop  offset="1" style="stop-color:#31C4AB"/>
					</linearGradient>
					<path style="fill:url(#SVGID_00000134941841279282059960000004908310761293319351_);" d="M301.1,322.4c1.3,0.8,3.1,1.4,5,1.4
						c2.9,0,4.6-1.5,4.6-3.7c0-2-1.2-3.2-4.1-4.3c-3.5-1.3-5.8-3.1-5.8-6.2c0-3.4,2.8-5.9,7-5.9c2.2,0,3.8,0.5,4.8,1.1l-0.8,2.3
						c-0.7-0.4-2.2-1-4.1-1c-3,0-4.1,1.8-4.1,3.3c0,2,1.3,3,4.3,4.2c3.7,1.4,5.6,3.2,5.6,6.4c0,3.4-2.5,6.3-7.6,6.3
						c-2.1,0-4.4-0.6-5.6-1.4L301.1,322.4L301.1,322.4z"/>
				</g>
			</g>
			<g>
				<g>
					<g>
						
							<linearGradient id="SVGID_00000101068736693362001910000015684329637999649154_" gradientUnits="userSpaceOnUse" x1="80.2806" y1="288.8932" x2="209.6406" y2="335.0332" gradientTransform="matrix(1 0 0 -1 0 352.15)">
							<stop  offset="0" style="stop-color:#186256"/>
							<stop  offset="1" style="stop-color:#1F7B6B"/>
						</linearGradient>
						<path style="fill:url(#SVGID_00000101068736693362001910000015684329637999649154_);" d="M232.7,29.9
							c-4.6-2.2-10.9-4.9-15.7-6.7c-9.4-2.9-14.6-4.6-24.8-6c0.2,0,0,0,0,0c-0.2,0-0.4-0.1-0.7-0.1c-0.2,0-0.5-0.1-0.7-0.1
							c-0.7-0.1-1.4-0.2-2.1-0.2c-9.1-0.7-10.3-0.8-17.9-0.7c-2.2,0.1-5.1,0.3-7.2,0.5c-18.3,2-32,6.9-40.2,10.6l-2.3,1.1
							c-3.4,1.7-3.5,1.7-5.2,2.6c-3.7,2-3.8,2.1-5.7,3.2c-10.2,6.4-16.6,11.4-25.2,20c-2.7,2.9-6.2,7-8.8,10
							c15.7-16.8,88.6-45.8,141.3-38.5C224.9,26.6,227.4,27.6,232.7,29.9z"/>
						
							<linearGradient id="SVGID_00000145029633918702978360000013509343833729790903_" gradientUnits="userSpaceOnUse" x1="179.3201" y1="324.3947" x2="91.6001" y2="296.8448" gradientTransform="matrix(1 0 0 -1 0 352.15)">
							<stop  offset="0" style="stop-color:#FFFFFF;stop-opacity:0"/>
							<stop  offset="0.99" style="stop-color:#104139"/>
						</linearGradient>
						
							<path style="opacity:0.48;fill:url(#SVGID_00000145029633918702978360000013509343833729790903_);enable-background:new    ;" d="
							M232.7,29.9c-4.6-2.2-10.9-4.9-15.7-6.7c-9.4-2.9-14.6-4.6-24.8-6c0.2,0,0,0,0,0c-0.2,0-0.4-0.1-0.7-0.1
							c-0.2,0-0.5-0.1-0.7-0.1c-0.7-0.1-1.4-0.2-2.1-0.2c-9.1-0.7-10.3-0.8-17.9-0.7c-2.2,0.1-5.1,0.3-7.2,0.5
							c-18.3,2-32,6.9-40.2,10.6l-2.3,1.1c-3.4,1.7-3.5,1.7-5.2,2.6c-3.7,2-3.8,2.1-5.7,3.2c-10.2,6.4-16.6,11.4-25.2,20
							c-2.7,2.9-6.2,7-8.8,10c15.7-16.8,88.6-45.8,141.3-38.5C224.9,26.6,227.4,27.6,232.7,29.9z"/>
					</g>
					<g>
						
							<linearGradient id="SVGID_00000164491182838430441720000007886523353780742026_" gradientUnits="userSpaceOnUse" x1="40.9853" y1="86.4208" x2="319.8853" y2="169.3708" gradientTransform="matrix(1 0 0 -1 0 352.15)">
							<stop  offset="0" style="stop-color:#186256"/>
							<stop  offset="1" style="stop-color:#1F7B6B"/>
						</linearGradient>
						<path style="fill:url(#SVGID_00000164491182838430441720000007886523353780742026_);" d="M280.5,170.7
							c-61.6-26.5-202,44.1-199.4,55.2c0.1,0.3,0.4,0.7,0.5,1l5.4,5.6c9.4,8.5,9.8,8.9,15.8,13.1c10.3,6.6,11,7.1,17.8,10.4l4.8,2.2
							c-9.9-6.4,38.9-31.2,79-40.3c15.5-3.5,43.6-8.4,54.9,1.2c12.7,15.6-31.6,39.5-37.7,37.9c-0.3-0.1-0.6-0.3-0.8-0.4
							c0-1,0-1.3,2.2-3.1c3.4-3.6-1.3-4-3.5-3.9c-13.6,0.2-43.9,14.1-39.1,17.9c0.6,0.5,1.9,0.6,3.9,0.5c2.2-0.2,5.1-0.5,7.3-0.8
							c3.9-0.6,6.9-1.1,9-1.5c3.2-0.7,5.5-1.3,7.1-1.7c2.7-0.8,4.7-1.4,6-1.8c2.4-0.8,4.2-1.4,5.4-1.9c2.3-0.9,4-1.5,5.1-2
							c2.2-1,3.9-1.7,5-2.2c3.4-1.7,3.5-1.7,5.2-2.6c3.7-2,3.8-2.1,5.7-3.2c8.2-5.1,15.1-10.1,24.1-18.9c5.1-5.4,9.1-9.6,14.8-17.8
							c2.7-4.3,6.2-10.1,8.6-14.6C290.3,193.5,296.9,178.9,280.5,170.7L280.5,170.7z"/>
						
							<linearGradient id="SVGID_00000147194692778974430370000017896748799472566436_" gradientUnits="userSpaceOnUse" x1="263.1776" y1="180.5412" x2="32.5776" y2="89.8512" gradientTransform="matrix(1 0 0 -1 0 352.15)">
							<stop  offset="0" style="stop-color:#1F7B6B"/>
							<stop  offset="1" style="stop-color:#1F7B6B"/>
						</linearGradient>
						<path style="fill:url(#SVGID_00000147194692778974430370000017896748799472566436_);" d="M280.5,170.7
							c-33-14.2-88.7-0.5-132.8,17l0,0c-5.4,2.1-20.8,7.1-9.3-0.8c11.6-7.9,9-13.5-6.3-5.9S71.6,215,81.6,226.9l5.4,5.6
							c7.8,7.1,9.4,8.5,13.2,11.2c19.5-17.4,126.2-66.3,175.8-44.9c4,2,6.5,4.5,7.9,7.1c1.4-2.4,2.7-4.7,3.9-6.8
							C290.3,193.5,296.9,178.9,280.5,170.7L280.5,170.7z"/>
						
							<linearGradient id="SVGID_00000075146545726877886910000014733697540566155925_" gradientUnits="userSpaceOnUse" x1="404.9116" y1="229.0983" x2="179.3215" y2="133.0083" gradientTransform="matrix(1 0 0 -1 0 352.15)">
							<stop  offset="0" style="stop-color:#FFFFFF;stop-opacity:0"/>
							<stop  offset="0.66" style="stop-color:#557872;stop-opacity:0.71"/>
							<stop  offset="1" style="stop-color:#104139"/>
						</linearGradient>
						
							<path style="opacity:0.48;fill:url(#SVGID_00000075146545726877886910000014733697540566155925_);enable-background:new    ;" d="
							M286.9,200.7c0.3-0.6,0.6-1.1,0.9-1.6c2.5-5.5,9.1-20.2-7.3-28.4c-1-0.4-2-0.8-3.1-1.2c-0.4-0.1-0.7-0.2-1.1-0.4
							c-0.7-0.2-1.4-0.5-2.1-0.7c-0.4-0.1-0.9-0.2-1.3-0.4c-0.7-0.2-1.3-0.4-2-0.6c-0.5-0.1-1-0.2-1.4-0.3c-0.7-0.1-1.3-0.3-2-0.4
							c-0.5-0.1-1-0.2-1.5-0.3c-0.7-0.1-1.3-0.2-2-0.4c-0.5-0.1-1.1-0.2-1.6-0.2c-0.7-0.1-1.3-0.2-2-0.3c-0.5-0.1-1.1-0.1-1.6-0.2
							c-0.7-0.1-1.4-0.1-2-0.2c-0.6-0.1-1.1-0.1-1.7-0.1c-0.7-0.1-1.4-0.1-2.1-0.1c-0.6,0-1.1-0.1-1.7-0.1c-0.7,0-1.4,0-2.2-0.1
							c-0.6,0-1.1,0-1.7,0c-0.8,0-1.5,0-2.2,0c-0.6,0-1.1,0-1.7,0c-0.8,0-1.6,0.1-2.4,0.1c-0.6,0-1.1,0-1.7,0.1
							c-0.8,0-1.7,0.1-2.5,0.1c-0.5,0-1,0.1-1.6,0.1c-1,0.1-1.9,0.2-2.9,0.2c-0.4,0-0.8,0.1-1.2,0.1c-2.8,0.3-5.6,0.6-8.4,1
							c-0.4,0.1-0.8,0.1-1.2,0.2c-1,0.1-2,0.3-3,0.5c-0.5,0.1-1,0.2-1.6,0.3c-0.9,0.1-1.8,0.3-2.7,0.5c-0.6,0.1-1.1,0.2-1.7,0.3
							c-0.9,0.2-1.8,0.3-2.6,0.5c-0.6,0.1-1.2,0.2-1.8,0.4c-0.9,0.2-1.7,0.4-2.6,0.5c-0.6,0.1-1.2,0.3-1.8,0.4
							c-0.9,0.2-1.7,0.4-2.6,0.6c-0.6,0.1-1.2,0.3-1.8,0.4c-0.9,0.2-1.7,0.4-2.6,0.6c-0.6,0.1-1.2,0.3-1.8,0.4
							c-0.9,0.2-1.8,0.4-2.6,0.7c-0.6,0.1-1.2,0.3-1.7,0.5c-0.9,0.2-1.8,0.5-2.7,0.7c-0.6,0.1-1.1,0.3-1.7,0.5
							c-0.9,0.3-1.9,0.5-2.8,0.8c-0.5,0.1-1.1,0.3-1.6,0.5c-1,0.3-1.9,0.6-2.9,0.9c-0.5,0.1-0.9,0.3-1.4,0.4c-1.1,0.3-2.1,0.7-3.2,1
							c-0.4,0.1-0.7,0.2-1.1,0.4c-1.3,0.4-2.6,0.9-3.9,1.3c-0.1,0-0.2,0.1-0.3,0.1c-2.9,1-5.8,2-8.6,3c-0.2,0.1-0.3,0.1-0.5,0.2
							c-1.2,0.4-2.5,0.9-3.7,1.4c-0.3,0.1-0.6,0.2-1,0.4c-1,0.4-2.1,0.8-3.1,1.2c-0.4,0.1-0.8,0.3-1.2,0.4c-1,0.4-1.9,0.8-2.9,1.1
							c-0.1,0.1-0.3,0.1-0.4,0.1l0,0c-5.4,2.1-20.8,7.1-9.3-0.8c11.6-7.9,9-13.5-6.3-5.9S71.6,215,81.6,226.8l5.4,5.6
							c0.5,0.5,1,0.9,1.5,1.3c0.2,0.1,0.3,0.3,0.5,0.4c0.3,0.3,0.7,0.6,1,0.9c0.2,0.2,0.3,0.3,0.5,0.5c0.2,0.2,0.5,0.4,0.7,0.6
							c0.2,0.2,0.4,0.3,0.5,0.5c0.2,0.2,0.4,0.4,0.7,0.6c0.1,0.1,0.3,0.2,0.4,0.4c0.2,0.2,0.5,0.4,0.7,0.6c0.2,0.1,0.3,0.3,0.5,0.4
							c0.2,0.2,0.4,0.4,0.6,0.5c0.1,0.1,0.2,0.2,0.3,0.3c0.2,0.1,0.3,0.3,0.5,0.4c0.1,0.1,0.2,0.2,0.3,0.3c0.1,0.1,0.3,0.2,0.4,0.3
							c0.1,0.1,0.2,0.2,0.3,0.3c0.1,0.1,0.3,0.2,0.4,0.3c0.1,0.1,0.2,0.2,0.3,0.2c0.2,0.1,0.3,0.3,0.5,0.4c0.1,0.1,0.3,0.2,0.4,0.3
							c0.1,0.1,0.3,0.2,0.4,0.3c0.1,0.1,0.2,0.2,0.3,0.2c0.1,0.1,0.2,0.2,0.4,0.3c0.1,0.1,0.2,0.2,0.4,0.3c0.1,0.1,0.2,0.2,0.4,0.3
							c0.1,0.1,0.3,0.2,0.4,0.3c0,0,0.1,0,0.1,0.1l0,0c0.8,0.6,1.6,1.2,2.6,1.9c10.3,6.6,11,7.1,17.8,10.4l4.8,2.2
							c-9.9-6.4,38.9-31.2,79-40.3c15.5-3.5,43.6-8.4,54.9,1.2c12.7,15.6-31.6,39.5-37.7,37.9c-0.3-0.1-0.6-0.3-0.8-0.4
							c0-1,0-1.3,2.2-3.1c3.4-3.6-1.3-4-3.5-3.9c-13.6,0.2-43.9,14.1-39.1,17.9c0.6,0.5,1.9,0.6,3.9,0.5c2.2-0.2,5.1-0.5,7.3-0.8
							c3.9-0.6,6.9-1.1,9-1.5c3.2-0.7,5.5-1.3,7.1-1.7c2.7-0.8,4.7-1.4,6-1.8c2.4-0.8,4.2-1.4,5.4-1.9c2.3-0.9,4-1.5,5.1-2
							c2.2-1,3.9-1.7,5-2.2c3.4-1.7,3.5-1.7,5.2-2.6c3.7-2,3.8-2.1,5.7-3.2c8.2-5.1,15.1-10.1,24.1-18.9c5.1-5.4,9.1-9.6,14.8-17.8
							c2.1-3.3,4.6-7.5,6.8-11.3c0.1-0.1,0.1-0.2,0.2-0.3C286.4,201.6,286.6,201.1,286.9,200.7L286.9,200.7z"/>
					</g>
					<g>
						
							<linearGradient id="SVGID_00000174579020486559392880000005242715541188359353_" gradientUnits="userSpaceOnUse" x1="153.5128" y1="64.8696" x2="225.6028" y2="103.0696" gradientTransform="matrix(1 0 0 -1 0 352.15)">
							<stop  offset="0" style="stop-color:#186256"/>
							<stop  offset="1" style="stop-color:#1F7B6B"/>
						</linearGradient>
						<path style="fill:url(#SVGID_00000174579020486559392880000005242715541188359353_);" d="M200.7,265.8
							c3.2-0.7,5.5-1.3,7.1-1.7c2.7-0.8,4.7-1.4,6-1.8c2.4-0.8,4.2-1.4,5.4-1.9c2.3-0.9,4-1.5,5.1-2c2.2-1,3.9-1.7,5-2.2
							c3.4-1.7,3.5-1.7,5.2-2.6c3.7-2,3.8-2.1,5.7-3.2c4.9-3.1,9.4-6.1,14.1-9.9c-0.4-0.2-0.8-0.4-1.2-0.6
							c-10.6,10-27.8,18.1-31.5,17.2c-0.3-0.1-0.6-0.3-0.8-0.4c0-1,0-1.3,2.2-3.1c3.4-3.6-1.3-4-3.5-3.9
							c-13.6,0.2-43.9,14.1-39.1,17.9c0.6,0.5,1.9,0.6,3.9,0.5c2.2-0.2,5.1-0.5,7.3-0.8C195.7,266.7,198.7,266.2,200.7,265.8
							L200.7,265.8z"/>
						
							<linearGradient id="SVGID_00000109005263725828447770000011022089696891887036_" gradientUnits="userSpaceOnUse" x1="238.7391" y1="107.667" x2="160.4791" y2="72.857" gradientTransform="matrix(1 0 0 -1 0 352.15)">
							<stop  offset="0" style="stop-color:#FFFFFF;stop-opacity:0"/>
							<stop  offset="1" style="stop-color:#104139"/>
						</linearGradient>
						
							<path style="opacity:0.48;fill:url(#SVGID_00000109005263725828447770000011022089696891887036_);enable-background:new    ;" d="
							M200.7,265.8c3.2-0.7,5.5-1.3,7.1-1.7c2.7-0.8,4.7-1.4,6-1.8c2.4-0.8,4.2-1.4,5.4-1.9c2.3-0.9,4-1.5,5.1-2
							c2.2-1,3.9-1.7,5-2.2c3.4-1.7,3.5-1.7,5.2-2.6c3.7-2,3.8-2.1,5.7-3.2c4.9-3.1,9.4-6.1,14.1-9.9c-0.4-0.2-0.8-0.4-1.2-0.6
							c-10.6,10-27.8,18.1-31.5,17.2c-0.3-0.1-0.6-0.3-0.8-0.4c0-1,0-1.3,2.2-3.1c3.4-3.6-1.3-4-3.5-3.9
							c-13.6,0.2-43.9,14.1-39.1,17.9c0.6,0.5,1.9,0.6,3.9,0.5c2.2-0.2,5.1-0.5,7.3-0.8C195.7,266.7,198.7,266.2,200.7,265.8
							L200.7,265.8z"/>
					</g>
					<g>
						
							<linearGradient id="SVGID_00000099658727043391568850000001472293459296328619_" gradientUnits="userSpaceOnUse" x1="29.9605" y1="179.1136" x2="304.3705" y2="281.9037" gradientTransform="matrix(1 0 0 -1 0 352.15)">
							<stop  offset="0" style="stop-color:#104139"/>
							<stop  offset="1" style="stop-color:#1F7B6B"/>
						</linearGradient>
						<path style="fill:url(#SVGID_00000099658727043391568850000001472293459296328619_);" d="M298.2,113.9
							c-3.4-12.5-3.7-13.5-7.1-21.5c-2.6-5.4-6.3-12.5-9.3-17.6c-3.1-4-7-9.1-20.7-13.1c-77.7-18.8-206.1,41.1-209.7,56.3
							c-0.6,3.8-1.4,8.9-1.8,12.7c-0.7,12.7-0.7,13.2-0.2,20.6c1.4,12.9,1.5,13.4,3.2,20.6l0.1,0.4c0.6-19.5,163.9-89.8,229.1-60.6
							c5.3,2.4,17.1,6.9,19,19.2C300.1,125.5,299.1,118.9,298.2,113.9z"/>
						
							<linearGradient id="SVGID_00000076586162547812116020000012034873576348278697_" gradientUnits="userSpaceOnUse" x1="247.1996" y1="284.2764" x2="34.1795" y2="217.0664" gradientTransform="matrix(1 0 0 -1 0 352.15)">
							<stop  offset="0" style="stop-color:#1F7B6B"/>
							<stop  offset="1" style="stop-color:#1F7B6B"/>
						</linearGradient>
						<path style="fill:url(#SVGID_00000076586162547812116020000012034873576348278697_);" d="M291.1,92.3
							c-2.6-5.4-6.3-12.5-9.3-17.6c-3.1-4-7-9.1-20.7-13.1c-37.5-9.1-86.8,0.2-128.2,13.9h0c-18.3,5.3,2.1-7.4,16.7-11.3
							c7.4-2,13.8-7.6-0.3-4.8c-23.3,4.6-97.5,41.8-97.9,58.5c-0.6,3.8-1.4,8.9-1.8,12.7c-0.4,7.4-0.6,10.7-0.6,13.6
							C74.1,121,197.9,66.6,275.7,86c7.7,2.3,12.5,5,15.9,7.6C291.5,93.2,291.3,92.8,291.1,92.3L291.1,92.3z"/>
						
							<linearGradient id="SVGID_00000050632102225335996480000000257881012986501565_" gradientUnits="userSpaceOnUse" x1="345.3792" y1="298.4666" x2="55.5092" y2="199.4066" gradientTransform="matrix(1 0 0 -1 0 352.15)">
							<stop  offset="0" style="stop-color:#FFFFFF;stop-opacity:0"/>
							<stop  offset="0.66" style="stop-color:#557872;stop-opacity:0.71"/>
							<stop  offset="1" style="stop-color:#104139"/>
						</linearGradient>
						
							<path style="opacity:0.48;fill:url(#SVGID_00000050632102225335996480000000257881012986501565_);enable-background:new    ;" d="
							M298.2,113.9c-3.4-12.5-3.7-13.5-7.1-21.5c-2.6-5.4-6.3-12.5-9.3-17.6c-3.1-4-7-9.1-20.7-13.1c-1.2-0.3-2.4-0.6-3.6-0.8
							c-0.4-0.1-0.8-0.2-1.2-0.2c-0.8-0.2-1.6-0.3-2.5-0.5c-0.5-0.1-1-0.2-1.5-0.2c-0.7-0.1-1.5-0.2-2.2-0.3
							c-0.5-0.1-1.1-0.1-1.6-0.2c-0.7-0.1-1.4-0.2-2.2-0.3c-0.6-0.1-1.1-0.1-1.7-0.2c-0.7-0.1-1.4-0.2-2.1-0.2
							c-0.6,0-1.2-0.1-1.8-0.1c-0.7,0-1.4-0.1-2.1-0.2c-0.6,0-1.2-0.1-1.9-0.1c-0.7,0-1.4-0.1-2.1-0.1c-0.6,0-1.3,0-1.9-0.1
							c-0.7,0-1.4,0-2.1,0c-0.6,0-1.3,0-1.9,0c-0.7,0-1.4,0-2.1,0c-0.7,0-1.3,0-2,0c-0.7,0-1.4,0-2.1,0c-0.7,0-1.4,0-2,0.1
							c-0.7,0-1.4,0-2.1,0.1c-0.7,0-1.4,0.1-2.1,0.1s-1.4,0.1-2.1,0.1s-1.4,0.1-2.1,0.2c-0.7,0-1.4,0.1-2.1,0.2
							c-0.7,0.1-1.4,0.1-2.1,0.2c-0.7,0.1-1.4,0.1-2.1,0.2c-0.7,0.1-1.4,0.2-2.2,0.2c-0.7,0.1-1.4,0.2-2,0.2
							c-0.7,0.1-1.5,0.2-2.2,0.3c-0.7,0.1-1.3,0.2-2,0.3c-0.8,0.1-1.5,0.2-2.2,0.3c-0.7,0.1-1.3,0.2-2,0.3c-0.8,0.1-1.5,0.2-2.3,0.3
							c-0.6,0.1-1.3,0.2-1.9,0.3c-0.8,0.1-1.6,0.3-2.3,0.4c-0.6,0.1-1.2,0.2-1.9,0.3c-0.8,0.1-1.6,0.3-2.4,0.4
							c-0.6,0.1-1.2,0.2-1.8,0.3c-0.8,0.2-1.6,0.3-2.5,0.5c-0.6,0.1-1.1,0.2-1.7,0.3c-0.9,0.2-1.7,0.3-2.5,0.5
							c-0.5,0.1-1.1,0.2-1.6,0.4c-0.9,0.2-1.8,0.4-2.6,0.6c-0.5,0.1-1,0.2-1.5,0.3c-0.9,0.2-1.8,0.4-2.8,0.6
							c-0.4,0.1-0.8,0.2-1.3,0.3c-1,0.2-2,0.5-2.9,0.7c-0.3,0.1-0.6,0.2-0.9,0.2c-1.1,0.3-2.2,0.6-3.3,0.8c-0.1,0-0.2,0-0.3,0.1
							c-8.1,2.2-16,4.5-23.7,7.1h0c-18.3,5.3,2.1-7.4,16.7-11.3c7.4-2,13.8-7.6-0.3-4.8c-23.3,4.6-97.5,41.8-97.9,58.5
							c-0.6,3.8-1.4,8.9-1.8,12.7c0,0.4-0.1,0.9-0.1,1.2c0,0.1,0,0.1,0,0.2c-0.1,1.3-0.1,2.4-0.2,3.4v0c-0.1,1-0.1,2-0.1,2.8l0,0
							c0,0.3,0,0.5,0,0.8c0,0,0,0.1,0,0.1c0,0.2,0,0.5,0,0.7c0,0,0,0,0,0c0,0.2,0,0.5,0,0.7l0,0c0,0.9,0,1.7-0.1,2.5c0,0,0,0,0,0
							c0,0.2,0,0.4,0,0.5l0,0c0,2.3,0.1,4.2,0.3,7.6c1.4,12.9,1.5,13.4,3.2,20.6l0.1,0.4c0.6-19.5,163.9-89.8,229.1-60.6
							c5.3,2.4,17.1,6.9,19,19.2C300.2,125.4,299.2,118.8,298.2,113.9L298.2,113.9z"/>
					</g>
				</g>
				<g>
					
						<linearGradient id="SVGID_00000107571033514046641420000012655543238448330143_" gradientUnits="userSpaceOnUse" x1="72.1655" y1="283.3926" x2="140.4155" y2="324.1226" gradientTransform="matrix(1 0 0 -1 0 352.15)">
						<stop  offset="0" style="stop-color:#31C4AB"/>
						<stop  offset="1" style="stop-color:#31C4AB"/>
					</linearGradient>
					<path style="fill:url(#SVGID_00000107571033514046641420000012655543238448330143_);" d="M76.2,64.1c2.6-3.1,6.1-7.1,8.8-10
						c7.8-7.7,13.8-12.8,25.2-20c2.5-1.5,4.4-2.5,5.7-3.2c2.3-1.2,4-2.1,5.2-2.6l2.3-1.1c-13.6,6.4-11.4,8.1-11.2,8.3
						c1.5,0.9,8.8-1,15.1-4.5l0,0c9.5-4.4,16.5-3.2,14.2,2.4c-6.8,16.2-62.4,40.9-66.3,33.7C74.7,66.1,75.6,64.8,76.2,64.1"/>
					
						<linearGradient id="SVGID_00000121247531787344446380000011729275673923290514_" gradientUnits="userSpaceOnUse" x1="69.0423" y1="258.1318" x2="113.5023" y2="308.1718" gradientTransform="matrix(1 0 0 -1 0 352.15)">
						<stop  offset="0" style="stop-color:#29A38F"/>
						<stop  offset="1" style="stop-color:#31C4AB"/>
					</linearGradient>
					<path style="fill:url(#SVGID_00000121247531787344446380000011729275673923290514_);" d="M92.1,49c-0.3-0.5-0.1-1.2,0.2-1.8
						c-2.4,2.1-4.8,4.4-7.3,6.9c-2.7,2.9-6.2,7-8.8,10c-0.6,0.7-1.5,2-1,2.9c3.9,7.2,59.6-17.5,66.3-33.7c0.4-0.9,0.5-1.7,0.4-2.3
						C123,43.4,94.8,54,92.1,49L92.1,49z"/>
					
						<linearGradient id="SVGID_00000086691247120762890880000016374751363420479142_" gradientUnits="userSpaceOnUse" x1="74.6029" y1="214.8307" x2="203.4329" y2="300.4207" gradientTransform="matrix(1 0 0 -1 0 352.15)">
						<stop  offset="0" style="stop-color:#29A38F"/>
						<stop  offset="1" style="stop-color:#31C4AB"/>
					</linearGradient>
					<path style="fill:url(#SVGID_00000086691247120762890880000016374751363420479142_);" d="M232.7,29.9
						c54.7,27.9-80.2,122.4-155.8,142c-9.7,2.5-22.5,5-24.3,0.3c-1.9-5-6.7-29.5-1.2-54.4C51.7,133.1,144,97,183.6,54.2
						c14.8-16,21.4-35.5-8.7-37.9C198.4,15.5,217.2,22,232.7,29.9L232.7,29.9z"/>
					
						<linearGradient id="SVGID_00000080174876284904118620000014164882195502602169_" gradientUnits="userSpaceOnUse" x1="86.1594" y1="98.5059" x2="297.4094" y2="229.4059" gradientTransform="matrix(1 0 0 -1 0 352.15)">
						<stop  offset="0" style="stop-color:#29A38F"/>
						<stop  offset="1" style="stop-color:#31C4AB"/>
					</linearGradient>
					<path style="fill:url(#SVGID_00000080174876284904118620000014164882195502602169_);" d="M281.8,74.7c1,1.9,2.3,4.5,2.8,6.6
						c13,53.4-174.2,164.9-203,145.5c10.7,13.6,35.6,29.2,43.9,31.3c43.8,11,178.7-66.8,175.6-125.3
						C299.7,107.8,289.2,85.5,281.8,74.7L281.8,74.7z"/>
					
						<linearGradient id="SVGID_00000034776745489258644350000000213560910487902886_" gradientUnits="userSpaceOnUse" x1="220.7288" y1="98.9465" x2="295.3588" y2="157.9965" gradientTransform="matrix(1 0 0 -1 0 352.15)">
						<stop  offset="0" style="stop-color:#29A38F"/>
						<stop  offset="1" style="stop-color:#31C4AB"/>
					</linearGradient>
					<path style="fill:url(#SVGID_00000034776745489258644350000000213560910487902886_);" d="M279.2,213.6
						c-4.2,5.8-7.9,10.9-14.8,17.8c-6.3,6.1-12.5,11.7-24.1,18.9c-2.5,1.5-4.4,2.5-5.7,3.2c-2.3,1.2-4,2.1-5.2,2.6
						c-2.2,1-3.9,1.8-5,2.2c-2.3,0.9-3.9,1.6-5.1,2c-3.5,1.3-3.6,1.3-5.4,1.9c-3.9,1.2-4,1.2-6,1.8c-4.5,1.1-4.7,1.2-7.1,1.7
						c-5.4,1-5.8,1.1-9,1.5c-2.2,0.2-5.1,0.6-7.3,0.8c21.1-2.6,84.5-34.1,103.3-69C285.4,203.5,282.1,209.4,279.2,213.6"/>
					<g>
						
							<linearGradient id="SVGID_00000106144732450836016720000011985101999089058982_" gradientUnits="userSpaceOnUse" x1="62.1463" y1="165.3895" x2="223.2063" y2="299.8594" gradientTransform="matrix(1 0 0 -1 0 352.15)">
							<stop  offset="0" style="stop-color:#1F7B6B"/>
							<stop  offset="1" style="stop-color:#31C4AB"/>
						</linearGradient>
						<path style="fill:url(#SVGID_00000106144732450836016720000011985101999089058982_);" d="M245.1,44.3
							c-0.4-2.1-1.3-4.2-2.5-6.1c0,0,0,0-0.1-0.1l0,0c-2.1-3.1-5.3-5.9-9.8-8.2c-9.4-4.8-20.1-9.1-32.2-11.6
							c3.4,1.1,6.6,2.4,9.6,3.9C256.9,46.1,149,130.6,69.5,146.4c-8.9,1.8-15.7,1.4-20.5,0.4c0.4,12.7,2.6,22.5,3.7,25.5
							c1.8,4.7,14.6,2.2,24.3-0.3c29.7-7.8,68.7-27.1,101.7-49.4c11.8-8,27.3-14.4,5.9,2.8c-13.5,10.8,0,11.3,24.4-8.3
							C250.1,84,248.4,56.1,245.1,44.3L245.1,44.3z"/>
						
							<linearGradient id="SVGID_00000148653836526076950550000009445455249646021536_" gradientUnits="userSpaceOnUse" x1="295.2846" y1="347.5226" x2="74.3546" y2="193.1326" gradientTransform="matrix(1 0 0 -1 0 352.15)">
							<stop  offset="0" style="stop-color:#FFFFFF;stop-opacity:0"/>
							<stop  offset="0.66" style="stop-color:#557872;stop-opacity:0.71"/>
							<stop  offset="1" style="stop-color:#104139"/>
						</linearGradient>
						
							<path style="opacity:0.68;fill:url(#SVGID_00000148653836526076950550000009445455249646021536_);enable-background:new    ;" d="
							M245.1,44.3c-0.4-2.1-1.3-4.2-2.5-6.1c0,0,0,0-0.1-0.1l0,0c-2.1-3.1-5.3-5.9-9.8-8.2c-9.4-4.8-20.1-9.1-32.2-11.6
							c3.4,1.1,6.6,2.4,9.6,3.9C256.9,46.1,149,130.6,69.5,146.4c-8.9,1.8-15.7,1.4-20.5,0.4c0.4,12.7,2.6,22.5,3.7,25.5
							c1.8,4.7,14.6,2.2,24.3-0.3c29.7-7.8,68.7-27.1,101.7-49.4c11.8-8,27.3-14.4,5.9,2.8c-13.5,10.8,0,11.3,24.4-8.3
							C250.1,84,248.4,56.1,245.1,44.3L245.1,44.3z"/>
					</g>
					<g>
						
							<linearGradient id="SVGID_00000035519378254329632250000014177019546982446720_" gradientUnits="userSpaceOnUse" x1="114.2863" y1="179.6812" x2="190.9863" y2="225.4612" gradientTransform="matrix(1 0 0 -1 0 352.15)">
							<stop  offset="0" style="stop-color:#1F7B6B"/>
							<stop  offset="1" style="stop-color:#31C4AB"/>
						</linearGradient>
						<path style="fill:url(#SVGID_00000035519378254329632250000014177019546982446720_);" d="M155.9,144.3
							c-3.6,3.6-2.3,5.6,2.6,4.5c6.1-1.4,12.3-5.6,14.9-8.6c3.5-4,0.4-5.3-4-3.9C166.7,137.1,159.4,140.7,155.9,144.3L155.9,144.3z"
							/>
						
							<linearGradient id="SVGID_00000056393946007271881620000001678657295004423079_" gradientUnits="userSpaceOnUse" x1="189.9464" y1="225.7906" x2="150.7464" y2="200.9406" gradientTransform="matrix(1 0 0 -1 0 352.15)">
							<stop  offset="0" style="stop-color:#FFFFFF;stop-opacity:0"/>
							<stop  offset="1" style="stop-color:#104139"/>
						</linearGradient>
						
							<path style="opacity:0.68;fill:url(#SVGID_00000056393946007271881620000001678657295004423079_);enable-background:new    ;" d="
							M155.9,144.3c-3.6,3.6-2.3,5.6,2.6,4.5c6.1-1.4,12.3-5.6,14.9-8.6c3.5-4,0.4-5.3-4-3.9C166.7,137.1,159.4,140.7,155.9,144.3
							L155.9,144.3z"/>
					</g>
					<g>
						
							<linearGradient id="SVGID_00000111159985034040096800000000140545624899561364_" gradientUnits="userSpaceOnUse" x1="141.4035" y1="83.3218" x2="270.0635" y2="221.4518" gradientTransform="matrix(1 0 0 -1 0 352.15)">
							<stop  offset="0" style="stop-color:#29A38F"/>
							<stop  offset="1" style="stop-color:#31C4AB"/>
						</linearGradient>
						<path style="fill:url(#SVGID_00000111159985034040096800000000140545624899561364_);" d="M294.3,100.1
							c0.1,1.2,0.1,2.7,0.2,3.9c3.4,63.5-138.9,147.2-192.3,141.2c9.2,6.8,18.7,11.7,23.3,12.9c4.7,1.2,10.5,1.3,17,0.6l0,0
							c3.7-0.3,5.7,1.2,1.3,2c-5,0.9-10.3,1-17.8,0.4c-3.9-0.3-4.8,9.5,22.2,3.9c96.8-20.1,133.5-80.5,146.6-106.8l0,0
							c1.5-0.4-1.7,4.7-2.5,8.2c-1.2,5.3,5.5,6.6,8.7-15.9C303.6,133,298.4,111.3,294.3,100.1L294.3,100.1z"/>
						
							<linearGradient id="SVGID_00000011723846148173933650000017251694343062584738_" gradientUnits="userSpaceOnUse" x1="370.5515" y1="254.1627" x2="124.7814" y2="99.9427" gradientTransform="matrix(1 0 0 -1 0 352.15)">
							<stop  offset="0" style="stop-color:#FFFFFF;stop-opacity:0"/>
							<stop  offset="0.65" style="stop-color:#557872;stop-opacity:0.71"/>
							<stop  offset="1" style="stop-color:#104139"/>
						</linearGradient>
						
							<path style="opacity:0.68;fill:url(#SVGID_00000011723846148173933650000017251694343062584738_);enable-background:new    ;" d="
							M294.3,100.1c0.1,1.2,0.1,2.7,0.2,3.9c3.4,63.5-138.9,147.2-192.3,141.2c9.2,6.8,18.7,11.7,23.3,12.9c4.7,1.2,10.5,1.3,17,0.6
							l0,0c3.7-0.3,5.7,1.2,1.3,2c-5,0.9-10.3,1-17.8,0.4c-3.9-0.3-4.8,9.5,22.2,3.9c96.8-20.1,133.5-80.5,146.6-106.8l0,0
							c1.5-0.4-1.7,4.7-2.5,8.2c-1.2,5.3,5.5,6.6,8.7-15.9C303.6,133,298.4,111.3,294.3,100.1L294.3,100.1z"/>
					</g>
					<g>
						
							<linearGradient id="SVGID_00000031180011562395635950000011329411546335630269_" gradientUnits="userSpaceOnUse" x1="71.0142" y1="285.3247" x2="139.2642" y2="326.0647" gradientTransform="matrix(1 0 0 -1 0 352.15)">
							<stop  offset="0" style="stop-color:#FFFFFF;stop-opacity:0"/>
							<stop  offset="1" style="stop-color:#FFFFFF;stop-opacity:0.5"/>
						</linearGradient>
						<path style="fill:url(#SVGID_00000031180011562395635950000011329411546335630269_);" d="M141.7,30.7
							c-17,11.1-41.2,20.7-47.9,19c-0.7-0.2-1.2-0.5-1.4-0.9c-0.2-0.3-0.1-0.8,0.2-1.5l0.2-0.3l-0.2-0.1c-0.3,0.3-0.6,0.5-0.9,0.8
							c-0.2,0.5-0.1,1,0.1,1.4c0.3,0.6,1,1,1.9,1.2c0.6,0.1,1.2,0.2,2,0.2c8.7,0,30.6-8.9,46.4-19.2c0-0.3,0-0.5-0.1-0.8L141.7,30.7
							L141.7,30.7z"/>
						
							<linearGradient id="SVGID_00000112625113802495589260000016824013730198529944_" gradientUnits="userSpaceOnUse" x1="61.3379" y1="190.1983" x2="219.5919" y2="322.3334" gradientTransform="matrix(1 0 0 -1 0 352.15)">
							<stop  offset="0" style="stop-color:#FFFFFF;stop-opacity:0"/>
							<stop  offset="1" style="stop-color:#FFFFFF;stop-opacity:0.5"/>
						</linearGradient>
						<path style="fill:url(#SVGID_00000112625113802495589260000016824013730198529944_);" d="M200.4,18.7c3.5,1.1,6.7,2.4,9.6,3.9
							c8.4,4.3,12.1,10.7,11,19.1c-2.2,16-22.2,38.5-53.4,60.1c-31.4,21.7-68.1,38.2-98.1,44.2c-7.6,1.5-14.5,1.6-20.4,0.4l-0.1,0
							c0,0.2,0,0.5,0,0.7c2.7,0.6,5.5,0.8,8.6,0.8c3.7,0,7.7-0.4,12-1.3c30.1-6,66.9-22.6,98.3-44.3c31.4-21.7,51.5-44.3,53.7-60.6
							c1.2-8.7-2.6-15.4-11.3-19.9c-2.1-1.1-4.5-2.1-6.9-3c-2.1-0.5-4.2-0.9-6.4-1.3L200.4,18.7L200.4,18.7z"/>
						
							<linearGradient id="SVGID_00000168102909110564980730000017422709680201470120_" gradientUnits="userSpaceOnUse" x1="101.81" y1="180.135" x2="294.8305" y2="180.135" gradientTransform="matrix(1 0 0 -1 0 352.15)">
							<stop  offset="0" style="stop-color:#FFFFFF;stop-opacity:0"/>
							<stop  offset="1" style="stop-color:#FFFFFF;stop-opacity:0.5"/>
						</linearGradient>
						<path style="fill:url(#SVGID_00000168102909110564980730000017422709680201470120_);" d="M294.8,104c0-0.9-0.1-1.9-0.2-3.1
							c-0.3-0.9-0.7-1.9-1-2.8l0.2,2.2c0.1,1.4,0.2,2.6,0.3,3.8c0.7,13.7-5.2,36.5-37.7,67.1c-21.5,20.3-51,40.1-80.9,54.3
							c-29.8,14.2-56.6,21.3-73.3,19.4l-0.3,0l0,0.1c0.3,0.2,0.6,0.4,0.9,0.6c1.7,0.2,3.4,0.2,5.3,0.2c37.4,0,105.9-33.8,148.9-74.2
							C274.9,154.7,296.1,129.1,294.8,104L294.8,104z"/>
					</g>
				</g>
			</g>
		</g>
	</g>
</g>
</svg>
