<?xml version="1.0" encoding="utf-8"?>
<!-- Generator: Adobe Illustrator 27.0.0, SVG Export Plug-In . SVG Version: 6.00 Build 0)  -->
<svg version="1.1" id="Layer_1" xmlns="http://www.w3.org/2000/svg" xmlns:xlink="http://www.w3.org/1999/xlink" x="0px" y="0px"
	 viewBox="0 0 300 300" style="enable-background:new 0 0 300 300;" xml:space="preserve">
<style type="text/css">
	.st0{fill:url(#SVGID_1_);}
	.st1{opacity:0.48;fill:url(#SVGID_00000010304483631165761070000008028427615883728013_);enable-background:new    ;}
	.st2{fill:url(#SVGID_00000180363542255862983030000011437052178979006889_);}
	.st3{fill:url(#SVGID_00000073696718641136866190000015977945807129269140_);}
	.st4{opacity:0.48;fill:url(#SVGID_00000082353376519929312610000010220221456370177157_);enable-background:new    ;}
	.st5{fill:url(#SVGID_00000127754537910259017180000012888725534924539298_);}
	.st6{opacity:0.48;fill:url(#SVGID_00000023970060870137384890000018281566670563749794_);enable-background:new    ;}
	.st7{fill:url(#SVGID_00000137097990353325029410000007446842310563727267_);}
	.st8{fill:url(#SVGID_00000114051038223064250040000001433848365160175284_);}
	.st9{opacity:0.48;fill:url(#SVGID_00000046318343219401521840000003130468993358383777_);enable-background:new    ;}
	.st10{fill:url(#SVGID_00000055687524197789253150000014814669970884091034_);}
	.st11{fill:url(#SVGID_00000165214567541658150660000007302764476090829457_);}
	.st12{fill:url(#SVGID_00000029732909532621147010000004220249592097085105_);}
	.st13{fill:url(#SVGID_00000044176269269306674920000015308864647532090756_);}
	.st14{fill:url(#SVGID_00000010292539321065078590000014256640170861622184_);}
	.st15{fill:url(#SVGID_00000089563926879784115120000007102045497124381110_);}
	.st16{opacity:0.68;fill:url(#SVGID_00000032628722309050801040000001997202836140622467_);enable-background:new    ;}
	.st17{fill:url(#SVGID_00000093873327782758827100000015598273425974575295_);}
	.st18{opacity:0.68;fill:url(#SVGID_00000013907312662065898850000001727916319477315460_);enable-background:new    ;}
	.st19{fill:url(#SVGID_00000011741673303402581780000005289478433381992108_);}
	.st20{opacity:0.68;fill:url(#SVGID_00000047022085746144613570000017225735882176283776_);enable-background:new    ;}
	.st21{fill:url(#SVGID_00000026152167016562505150000003532032604608274833_);}
	.st22{fill:url(#SVGID_00000168800829417133152830000001533962033510783164_);}
	.st23{fill:url(#SVGID_00000158004870180113742910000012425917074955130524_);}
</style>
<g>
	<g id="OBJECTS">
		<g>
			<g>
				<g>
					<g>
						
							<linearGradient id="SVGID_1_" gradientUnits="userSpaceOnUse" x1="53.2712" y1="487.0806" x2="182.6312" y2="440.9406" gradientTransform="matrix(1 0 0 1 0 -415.85)">
							<stop  offset="0" style="stop-color:#186256"/>
							<stop  offset="1" style="stop-color:#1F7B6B"/>
						</linearGradient>
						<path class="st0" d="M205.7,37.9c-4.6-2.2-10.9-4.9-15.7-6.7c-9.4-2.9-14.6-4.6-24.8-6c0.2,0,0,0,0,0c-0.2,0-0.4-0.1-0.7-0.1
							c-0.2,0-0.5-0.1-0.7-0.1c-0.7-0.1-1.4-0.2-2.1-0.2c-9.1-0.7-10.3-0.8-17.9-0.7c-2.2,0.1-5.1,0.3-7.2,0.5
							c-18.3,2-32,6.9-40.2,10.6l-2.3,1.1c-3.4,1.7-3.5,1.7-5.2,2.6c-3.7,2-3.8,2.1-5.7,3.2C73,48.5,66.6,53.5,58,62.1
							c-2.7,2.9-6.2,7-8.8,10c15.7-16.8,88.6-45.8,141.3-38.5C197.9,34.6,200.4,35.6,205.7,37.9z"/>
						
							<linearGradient id="SVGID_00000041279331166350865380000002099587472596436150_" gradientUnits="userSpaceOnUse" x1="152.311" y1="451.5764" x2="64.591" y2="479.1263" gradientTransform="matrix(1 0 0 1 0 -415.85)">
							<stop  offset="0" style="stop-color:#FFFFFF;stop-opacity:0"/>
							<stop  offset="0.99" style="stop-color:#104139"/>
						</linearGradient>
						
							<path style="opacity:0.48;fill:url(#SVGID_00000041279331166350865380000002099587472596436150_);enable-background:new    ;" d="
							M205.7,37.9c-4.6-2.2-10.9-4.9-15.7-6.7c-9.4-2.9-14.6-4.6-24.8-6c0.2,0,0,0,0,0c-0.2,0-0.4-0.1-0.7-0.1
							c-0.2,0-0.5-0.1-0.7-0.1c-0.7-0.1-1.4-0.2-2.1-0.2c-9.1-0.7-10.3-0.8-17.9-0.7c-2.2,0.1-5.1,0.3-7.2,0.5
							c-18.3,2-32,6.9-40.2,10.6l-2.3,1.1c-3.4,1.7-3.5,1.7-5.2,2.6c-3.7,2-3.8,2.1-5.7,3.2C73,48.5,66.6,53.5,58,62.1
							c-2.7,2.9-6.2,7-8.8,10c15.7-16.8,88.6-45.8,141.3-38.5C197.9,34.6,200.4,35.6,205.7,37.9z"/>
					</g>
					<g>
						
							<linearGradient id="SVGID_00000055689903648656135080000005068047640578304185_" gradientUnits="userSpaceOnUse" x1="13.9624" y1="689.5021" x2="292.8624" y2="606.5521" gradientTransform="matrix(1 0 0 1 0 -415.85)">
							<stop  offset="0" style="stop-color:#186256"/>
							<stop  offset="1" style="stop-color:#1F7B6B"/>
						</linearGradient>
						<path style="fill:url(#SVGID_00000055689903648656135080000005068047640578304185_);" d="M253.5,178.7
							c-61.6-26.5-202,44.1-199.4,55.2c0.1,0.3,0.4,0.7,0.5,1l5.4,5.6c9.4,8.5,9.8,8.9,15.8,13.1c10.3,6.6,11,7.1,17.8,10.4l4.8,2.2
							c-9.9-6.4,38.9-31.2,79-40.3c15.5-3.5,43.6-8.4,54.9,1.2c12.7,15.6-31.6,39.5-37.7,37.9c-0.3-0.1-0.6-0.3-0.8-0.4
							c0-1,0-1.3,2.2-3.1c3.4-3.6-1.3-4-3.5-3.9c-13.6,0.2-43.9,14.1-39.1,17.9c0.6,0.5,1.9,0.6,3.9,0.5c2.2-0.2,5.1-0.5,7.3-0.8
							c3.9-0.6,6.9-1.1,9-1.5c3.2-0.7,5.5-1.3,7.1-1.7c2.7-0.8,4.7-1.4,6-1.8c2.4-0.8,4.2-1.4,5.4-1.9c2.3-0.9,4-1.5,5.1-2
							c2.2-1,3.9-1.7,5-2.2c3.4-1.7,3.5-1.7,5.2-2.6c3.7-2,3.8-2.1,5.7-3.2c8.2-5.1,15.1-10.1,24.1-18.9c5.1-5.4,9.1-9.6,14.8-17.8
							c2.7-4.3,6.2-10.1,8.6-14.6C263.3,201.5,269.9,186.9,253.5,178.7L253.5,178.7z"/>
						
							<linearGradient id="SVGID_00000026164245094461249120000000060071098909115835_" gradientUnits="userSpaceOnUse" x1="236.1847" y1="595.4768" x2="5.5847" y2="686.1668" gradientTransform="matrix(1 0 0 1 0 -415.85)">
							<stop  offset="0" style="stop-color:#1F7B6B"/>
							<stop  offset="1" style="stop-color:#1F7B6B"/>
						</linearGradient>
						<path style="fill:url(#SVGID_00000026164245094461249120000000060071098909115835_);" d="M253.5,178.7
							c-33-14.2-88.7-0.5-132.8,17l0,0c-5.4,2.1-20.8,7.1-9.3-0.8c11.6-7.9,9-13.5-6.3-5.9s-60.5,34-50.5,45.9l5.4,5.6
							c7.8,7.1,9.4,8.5,13.2,11.2c19.5-17.4,126.2-66.3,175.8-44.9c4,2,6.5,4.5,7.9,7.1c1.4-2.4,2.7-4.7,3.9-6.8
							C263.3,201.5,269.9,186.9,253.5,178.7L253.5,178.7z"/>
						
							<linearGradient id="SVGID_00000005963905002626899880000001611758617751285634_" gradientUnits="userSpaceOnUse" x1="377.8921" y1="546.8558" x2="152.302" y2="642.9459" gradientTransform="matrix(1 0 0 1 0 -415.85)">
							<stop  offset="0" style="stop-color:#FFFFFF;stop-opacity:0"/>
							<stop  offset="0.66" style="stop-color:#557872;stop-opacity:0.71"/>
							<stop  offset="1" style="stop-color:#104139"/>
						</linearGradient>
						
							<path style="opacity:0.48;fill:url(#SVGID_00000005963905002626899880000001611758617751285634_);enable-background:new    ;" d="
							M259.9,208.7c0.3-0.6,0.6-1.1,0.9-1.6c2.5-5.5,9.1-20.2-7.3-28.4c-1-0.4-2-0.8-3.1-1.2c-0.4-0.1-0.7-0.2-1.1-0.4
							c-0.7-0.2-1.4-0.5-2.1-0.7c-0.4-0.1-0.9-0.2-1.3-0.4c-0.7-0.2-1.3-0.4-2-0.6c-0.5-0.1-1-0.2-1.4-0.3c-0.7-0.1-1.3-0.3-2-0.4
							c-0.5-0.1-1-0.2-1.5-0.3c-0.7-0.1-1.3-0.2-2-0.4c-0.5-0.1-1.1-0.2-1.6-0.2c-0.7-0.1-1.3-0.2-2-0.3c-0.5-0.1-1.1-0.1-1.6-0.2
							c-0.7-0.1-1.4-0.1-2-0.2c-0.6-0.1-1.1-0.1-1.7-0.1c-0.7-0.1-1.4-0.1-2.1-0.1c-0.6,0-1.1-0.1-1.7-0.1c-0.7,0-1.4,0-2.2-0.1
							c-0.6,0-1.1,0-1.7,0c-0.8,0-1.5,0-2.2,0c-0.6,0-1.1,0-1.7,0c-0.8,0-1.6,0.1-2.4,0.1c-0.6,0-1.1,0-1.7,0.1
							c-0.8,0-1.7,0.1-2.5,0.1c-0.5,0-1,0.1-1.6,0.1c-1,0.1-1.9,0.2-2.9,0.2c-0.4,0-0.8,0.1-1.2,0.1c-2.8,0.3-5.6,0.6-8.4,1
							c-0.4,0.1-0.8,0.1-1.2,0.2c-1,0.1-2,0.3-3,0.5c-0.5,0.1-1,0.2-1.6,0.3c-0.9,0.1-1.8,0.3-2.7,0.5c-0.6,0.1-1.1,0.2-1.7,0.3
							c-0.9,0.2-1.8,0.3-2.6,0.5c-0.6,0.1-1.2,0.2-1.8,0.4c-0.9,0.2-1.7,0.4-2.6,0.5c-0.6,0.1-1.2,0.3-1.8,0.4
							c-0.9,0.2-1.7,0.4-2.6,0.6c-0.6,0.1-1.2,0.3-1.8,0.4c-0.9,0.2-1.7,0.4-2.6,0.6c-0.6,0.1-1.2,0.3-1.8,0.4
							c-0.9,0.2-1.8,0.4-2.6,0.7c-0.6,0.1-1.2,0.3-1.7,0.5c-0.9,0.2-1.8,0.5-2.7,0.7c-0.6,0.1-1.1,0.3-1.7,0.5
							c-0.9,0.3-1.9,0.5-2.8,0.8c-0.5,0.1-1.1,0.3-1.6,0.5c-1,0.3-1.9,0.6-2.9,0.9c-0.5,0.1-0.9,0.3-1.4,0.4c-1.1,0.3-2.1,0.7-3.2,1
							c-0.4,0.1-0.7,0.2-1.1,0.4c-1.3,0.4-2.6,0.9-3.9,1.3c-0.1,0-0.2,0.1-0.3,0.1c-2.9,1-5.8,2-8.6,3c-0.2,0.1-0.3,0.1-0.5,0.2
							c-1.2,0.4-2.5,0.9-3.7,1.4c-0.3,0.1-0.6,0.2-1,0.4c-1,0.4-2.1,0.8-3.1,1.2c-0.4,0.1-0.8,0.3-1.2,0.4c-1,0.4-1.9,0.8-2.9,1.1
							c-0.1,0.1-0.3,0.1-0.4,0.1l0,0c-5.4,2.1-20.8,7.1-9.3-0.8c11.6-7.9,9-13.5-6.3-5.9S44.6,223,54.6,234.8l5.4,5.6
							c0.5,0.5,1,0.9,1.5,1.3c0.2,0.1,0.3,0.3,0.5,0.4c0.3,0.3,0.7,0.6,1,0.9c0.2,0.2,0.3,0.3,0.5,0.5s0.5,0.4,0.7,0.6
							c0.2,0.2,0.4,0.3,0.5,0.5c0.2,0.2,0.4,0.4,0.7,0.6c0.1,0.1,0.3,0.2,0.4,0.4c0.2,0.2,0.5,0.4,0.7,0.6c0.2,0.1,0.3,0.3,0.5,0.4
							c0.2,0.2,0.4,0.4,0.6,0.5c0.1,0.1,0.2,0.2,0.3,0.3c0.2,0.1,0.3,0.3,0.5,0.4c0.1,0.1,0.2,0.2,0.3,0.3c0.1,0.1,0.3,0.2,0.4,0.3
							s0.2,0.2,0.3,0.3c0.1,0.1,0.3,0.2,0.4,0.3s0.2,0.2,0.3,0.2c0.2,0.1,0.3,0.3,0.5,0.4c0.1,0.1,0.3,0.2,0.4,0.3s0.3,0.2,0.4,0.3
							s0.2,0.2,0.3,0.2c0.1,0.1,0.2,0.2,0.4,0.3c0.1,0.1,0.2,0.2,0.4,0.3c0.1,0.1,0.2,0.2,0.4,0.3c0.1,0.1,0.3,0.2,0.4,0.3
							c0,0,0.1,0,0.1,0.1l0,0c0.8,0.6,1.6,1.2,2.6,1.9c10.3,6.6,11,7.1,17.8,10.4l4.8,2.2c-9.9-6.4,38.9-31.2,79-40.3
							c15.5-3.5,43.6-8.4,54.9,1.2c12.7,15.6-31.6,39.5-37.7,37.9c-0.3-0.1-0.6-0.3-0.8-0.4c0-1,0-1.3,2.2-3.1
							c3.4-3.6-1.3-4-3.5-3.9c-13.6,0.2-43.9,14.1-39.1,17.9c0.6,0.5,1.9,0.6,3.9,0.5c2.2-0.2,5.1-0.5,7.3-0.8
							c3.9-0.6,6.9-1.1,9-1.5c3.2-0.7,5.5-1.3,7.1-1.7c2.7-0.8,4.7-1.4,6-1.8c2.4-0.8,4.2-1.4,5.4-1.9c2.3-0.9,4-1.5,5.1-2
							c2.2-1,3.9-1.7,5-2.2c3.4-1.7,3.5-1.7,5.2-2.6c3.7-2,3.8-2.1,5.7-3.2c8.2-5.1,15.1-10.1,24.1-18.9c5.1-5.4,9.1-9.6,14.8-17.8
							c2.1-3.3,4.6-7.5,6.8-11.3c0.1-0.1,0.1-0.2,0.2-0.3C259.4,209.6,259.6,209.1,259.9,208.7L259.9,208.7z"/>
					</g>
					<g>
						
							<linearGradient id="SVGID_00000132785715990136679650000016357625641332074169_" gradientUnits="userSpaceOnUse" x1="126.5197" y1="711.1434" x2="198.6097" y2="672.9434" gradientTransform="matrix(1 0 0 1 0 -415.85)">
							<stop  offset="0" style="stop-color:#186256"/>
							<stop  offset="1" style="stop-color:#1F7B6B"/>
						</linearGradient>
						<path style="fill:url(#SVGID_00000132785715990136679650000016357625641332074169_);" d="M173.7,273.8
							c3.2-0.7,5.5-1.3,7.1-1.7c2.7-0.8,4.7-1.4,6-1.8c2.4-0.8,4.2-1.4,5.4-1.9c2.3-0.9,4-1.5,5.1-2c2.2-1,3.9-1.7,5-2.2
							c3.4-1.7,3.5-1.7,5.2-2.6c3.7-2,3.8-2.1,5.7-3.2c4.9-3.1,9.4-6.1,14.1-9.9c-0.4-0.2-0.8-0.4-1.2-0.6
							c-10.6,10-27.8,18.1-31.5,17.2c-0.3-0.1-0.6-0.3-0.8-0.4c0-1,0-1.3,2.2-3.1c3.4-3.6-1.3-4-3.5-3.9
							c-13.6,0.2-43.9,14.1-39.1,17.9c0.6,0.5,1.9,0.6,3.9,0.5c2.2-0.2,5.1-0.5,7.3-0.8C168.7,274.7,171.7,274.2,173.7,273.8
							L173.7,273.8z"/>
						
							<linearGradient id="SVGID_00000068672488162630667090000017792248323052049853_" gradientUnits="userSpaceOnUse" x1="211.7405" y1="668.3361" x2="133.4805" y2="703.1461" gradientTransform="matrix(1 0 0 1 0 -415.85)">
							<stop  offset="0" style="stop-color:#FFFFFF;stop-opacity:0"/>
							<stop  offset="1" style="stop-color:#104139"/>
						</linearGradient>
						
							<path style="opacity:0.48;fill:url(#SVGID_00000068672488162630667090000017792248323052049853_);enable-background:new    ;" d="
							M173.7,273.8c3.2-0.7,5.5-1.3,7.1-1.7c2.7-0.8,4.7-1.4,6-1.8c2.4-0.8,4.2-1.4,5.4-1.9c2.3-0.9,4-1.5,5.1-2
							c2.2-1,3.9-1.7,5-2.2c3.4-1.7,3.5-1.7,5.2-2.6c3.7-2,3.8-2.1,5.7-3.2c4.9-3.1,9.4-6.1,14.1-9.9c-0.4-0.2-0.8-0.4-1.2-0.6
							c-10.6,10-27.8,18.1-31.5,17.2c-0.3-0.1-0.6-0.3-0.8-0.4c0-1,0-1.3,2.2-3.1c3.4-3.6-1.3-4-3.5-3.9
							c-13.6,0.2-43.9,14.1-39.1,17.9c0.6,0.5,1.9,0.6,3.9,0.5c2.2-0.2,5.1-0.5,7.3-0.8C168.7,274.7,171.7,274.2,173.7,273.8
							L173.7,273.8z"/>
					</g>
					<g>
						
							<linearGradient id="SVGID_00000104664735015949759270000018365562234957902768_" gradientUnits="userSpaceOnUse" x1="2.9781" y1="596.9333" x2="277.3881" y2="494.1432" gradientTransform="matrix(1 0 0 1 0 -415.85)">
							<stop  offset="0" style="stop-color:#104139"/>
							<stop  offset="1" style="stop-color:#1F7B6B"/>
						</linearGradient>
						<path style="fill:url(#SVGID_00000104664735015949759270000018365562234957902768_);" d="M271.2,121.9
							c-3.4-12.5-3.7-13.5-7.1-21.5c-2.6-5.4-6.3-12.5-9.3-17.6c-3.1-4-7-9.1-20.7-13.1C156.4,50.9,28,110.8,24.4,126
							c-0.6,3.8-1.4,8.9-1.8,12.7c-0.7,12.7-0.7,13.2-0.2,20.6c1.4,12.9,1.5,13.4,3.2,20.6l0.1,0.4c0.6-19.5,163.9-89.8,229.1-60.6
							c5.3,2.4,17.1,6.9,19,19.2C273.1,133.5,272.1,126.9,271.2,121.9z"/>
						
							<linearGradient id="SVGID_00000093134594855352492200000006947233385918909870_" gradientUnits="userSpaceOnUse" x1="220.2027" y1="491.7335" x2="7.1826" y2="558.9435" gradientTransform="matrix(1 0 0 1 0 -415.85)">
							<stop  offset="0" style="stop-color:#1F7B6B"/>
							<stop  offset="1" style="stop-color:#1F7B6B"/>
						</linearGradient>
						<path style="fill:url(#SVGID_00000093134594855352492200000006947233385918909870_);" d="M264.1,100.3
							c-2.6-5.4-6.3-12.5-9.3-17.6c-3.1-4-7-9.1-20.7-13.1c-37.5-9.1-86.8,0.2-128.2,13.9l0,0c-18.3,5.3,2.1-7.4,16.7-11.3
							c7.4-2,13.8-7.6-0.3-4.8C99,72,24.8,109.2,24.4,125.9c-0.6,3.8-1.4,8.9-1.8,12.7c-0.4,7.4-0.6,10.7-0.6,13.6
							C47.1,129,170.9,74.6,248.7,94c7.7,2.3,12.5,5,15.9,7.6C264.5,101.2,264.3,100.8,264.1,100.3L264.1,100.3z"/>
						
							<linearGradient id="SVGID_00000002352806147049129990000004258082169826256810_" gradientUnits="userSpaceOnUse" x1="318.3465" y1="477.4377" x2="28.4765" y2="576.4977" gradientTransform="matrix(1 0 0 1 0 -415.85)">
							<stop  offset="0" style="stop-color:#FFFFFF;stop-opacity:0"/>
							<stop  offset="0.66" style="stop-color:#557872;stop-opacity:0.71"/>
							<stop  offset="1" style="stop-color:#104139"/>
						</linearGradient>
						
							<path style="opacity:0.48;fill:url(#SVGID_00000002352806147049129990000004258082169826256810_);enable-background:new    ;" d="
							M271.2,121.9c-3.4-12.5-3.7-13.5-7.1-21.5c-2.6-5.4-6.3-12.5-9.3-17.6c-3.1-4-7-9.1-20.7-13.1c-1.2-0.3-2.4-0.6-3.6-0.8
							c-0.4-0.1-0.8-0.2-1.2-0.2c-0.8-0.2-1.6-0.3-2.5-0.5c-0.5-0.1-1-0.2-1.5-0.2c-0.7-0.1-1.5-0.2-2.2-0.3
							c-0.5-0.1-1.1-0.1-1.6-0.2c-0.7-0.1-1.4-0.2-2.2-0.3c-0.6-0.1-1.1-0.1-1.7-0.2c-0.7-0.1-1.4-0.2-2.1-0.2
							c-0.6,0-1.2-0.1-1.8-0.1c-0.7,0-1.4-0.1-2.1-0.2c-0.6,0-1.2-0.1-1.9-0.1s-1.4-0.1-2.1-0.1c-0.6,0-1.3,0-1.9-0.1
							c-0.7,0-1.4,0-2.1,0c-0.6,0-1.3,0-1.9,0c-0.7,0-1.4,0-2.1,0c-0.7,0-1.3,0-2,0s-1.4,0-2.1,0c-0.7,0-1.4,0-2,0.1
							c-0.7,0-1.4,0-2.1,0.1c-0.7,0-1.4,0.1-2.1,0.1s-1.4,0.1-2.1,0.1s-1.4,0.1-2.1,0.2c-0.7,0-1.4,0.1-2.1,0.2
							c-0.7,0.1-1.4,0.1-2.1,0.2c-0.7,0.1-1.4,0.1-2.1,0.2c-0.7,0.1-1.4,0.2-2.2,0.2c-0.7,0.1-1.4,0.2-2,0.2
							c-0.7,0.1-1.5,0.2-2.2,0.3s-1.3,0.2-2,0.3c-0.8,0.1-1.5,0.2-2.2,0.3s-1.3,0.2-2,0.3c-0.8,0.1-1.5,0.2-2.3,0.3
							c-0.6,0.1-1.3,0.2-1.9,0.3c-0.8,0.1-1.6,0.3-2.3,0.4c-0.6,0.1-1.2,0.2-1.9,0.3c-0.8,0.1-1.6,0.3-2.4,0.4
							c-0.6,0.1-1.2,0.2-1.8,0.3c-0.8,0.2-1.6,0.3-2.5,0.5c-0.6,0.1-1.1,0.2-1.7,0.3c-0.9,0.2-1.7,0.3-2.5,0.5
							c-0.5,0.1-1.1,0.2-1.6,0.4c-0.9,0.2-1.8,0.4-2.6,0.6c-0.5,0.1-1,0.2-1.5,0.3c-0.9,0.2-1.8,0.4-2.8,0.6
							c-0.4,0.1-0.8,0.2-1.3,0.3c-1,0.2-2,0.5-2.9,0.7c-0.3,0.1-0.6,0.2-0.9,0.2c-1.1,0.3-2.2,0.6-3.3,0.8c-0.1,0-0.2,0-0.3,0.1
							c-8.1,2.2-16,4.5-23.7,7.1l0,0c-18.3,5.3,2.1-7.4,16.7-11.3c7.4-2,13.8-7.6-0.3-4.8c-23.3,4.6-97.5,41.8-97.9,58.5
							c-0.6,3.8-1.4,8.9-1.8,12.7c0,0.4-0.1,0.9-0.1,1.2c0,0.1,0,0.1,0,0.2c-0.1,1.3-0.1,2.4-0.2,3.4l0,0c-0.1,1-0.1,2-0.1,2.8l0,0
							c0,0.3,0,0.5,0,0.8v0.1c0,0.2,0,0.5,0,0.7l0,0c0,0.2,0,0.5,0,0.7l0,0c0,0.9,0,1.7-0.1,2.5l0,0c0,0.2,0,0.4,0,0.5l0,0
							c0,2.3,0.1,4.2,0.3,7.6c1.4,12.9,1.5,13.4,3.2,20.6l0.1,0.4c0.6-19.5,163.9-89.8,229.1-60.6c5.3,2.4,17.1,6.9,19,19.2
							C273.2,133.4,272.2,126.8,271.2,121.9L271.2,121.9z"/>
					</g>
				</g>
				<g>
					
						<linearGradient id="SVGID_00000077319543160392876260000010428608292467188640_" gradientUnits="userSpaceOnUse" x1="45.181" y1="492.6333" x2="113.431" y2="451.9033" gradientTransform="matrix(1 0 0 1 0 -415.85)">
						<stop  offset="0" style="stop-color:#31C4AB"/>
						<stop  offset="1" style="stop-color:#31C4AB"/>
					</linearGradient>
					<path style="fill:url(#SVGID_00000077319543160392876260000010428608292467188640_);" d="M49.2,72.1c2.6-3.1,6.1-7.1,8.8-10
						c7.8-7.7,13.8-12.8,25.2-20c2.5-1.5,4.4-2.5,5.7-3.2c2.3-1.2,4-2.1,5.2-2.6l2.3-1.1c-13.6,6.4-11.4,8.1-11.2,8.3
						c1.5,0.9,8.8-1,15.1-4.5l0,0c9.5-4.4,16.5-3.2,14.2,2.4c-6.8,16.2-62.4,40.9-66.3,33.7C47.7,74.1,48.6,72.8,49.2,72.1"/>
					
						<linearGradient id="SVGID_00000096775563312197156990000013517466781102744719_" gradientUnits="userSpaceOnUse" x1="42.0652" y1="517.8885" x2="86.5252" y2="467.8486" gradientTransform="matrix(1 0 0 1 0 -415.85)">
						<stop  offset="0" style="stop-color:#29A38F"/>
						<stop  offset="1" style="stop-color:#31C4AB"/>
					</linearGradient>
					<path style="fill:url(#SVGID_00000096775563312197156990000013517466781102744719_);" d="M65.1,57c-0.3-0.5-0.1-1.2,0.2-1.8
						c-2.4,2.1-4.8,4.4-7.3,6.9c-2.7,2.9-6.2,7-8.8,10c-0.6,0.7-1.5,2-1,2.9c3.9,7.2,59.6-17.5,66.3-33.7c0.4-0.9,0.5-1.7,0.4-2.3
						C96,51.4,67.8,62,65.1,57L65.1,57z"/>
					
						<linearGradient id="SVGID_00000000926702911137813560000015173104372142201008_" gradientUnits="userSpaceOnUse" x1="47.5905" y1="561.1506" x2="176.4205" y2="475.5607" gradientTransform="matrix(1 0 0 1 0 -415.85)">
						<stop  offset="0" style="stop-color:#29A38F"/>
						<stop  offset="1" style="stop-color:#31C4AB"/>
					</linearGradient>
					<path style="fill:url(#SVGID_00000000926702911137813560000015173104372142201008_);" d="M205.7,37.9
						c54.7,27.9-80.2,122.4-155.8,142c-9.7,2.5-22.5,5-24.3,0.3c-1.9-5-6.7-29.5-1.2-54.4c0.3,15.3,92.6-20.8,132.2-63.6
						c14.8-16,21.4-35.5-8.7-37.9C171.4,23.5,190.2,30,205.7,37.9L205.7,37.9z"/>
					
						<linearGradient id="SVGID_00000053509392072764596030000008359574947719757222_" gradientUnits="userSpaceOnUse" x1="59.1463" y1="677.473" x2="270.3963" y2="546.573" gradientTransform="matrix(1 0 0 1 0 -415.85)">
						<stop  offset="0" style="stop-color:#29A38F"/>
						<stop  offset="1" style="stop-color:#31C4AB"/>
					</linearGradient>
					<path style="fill:url(#SVGID_00000053509392072764596030000008359574947719757222_);" d="M254.8,82.7c1,1.9,2.3,4.5,2.8,6.6
						c13,53.4-174.2,164.9-203,145.5c10.7,13.6,35.6,29.2,43.9,31.3c43.8,11,178.7-66.8,175.6-125.3
						C272.7,115.8,262.2,93.5,254.8,82.7L254.8,82.7z"/>
					
						<linearGradient id="SVGID_00000011709852202697862410000017723148339267248059_" gradientUnits="userSpaceOnUse" x1="193.7204" y1="677.0429" x2="268.3504" y2="617.9929" gradientTransform="matrix(1 0 0 1 0 -415.85)">
						<stop  offset="0" style="stop-color:#29A38F"/>
						<stop  offset="1" style="stop-color:#31C4AB"/>
					</linearGradient>
					<path style="fill:url(#SVGID_00000011709852202697862410000017723148339267248059_);" d="M252.2,221.6
						c-4.2,5.8-7.9,10.9-14.8,17.8c-6.3,6.1-12.5,11.7-24.1,18.9c-2.5,1.5-4.4,2.5-5.7,3.2c-2.3,1.2-4,2.1-5.2,2.6
						c-2.2,1-3.9,1.8-5,2.2c-2.3,0.9-3.9,1.6-5.1,2c-3.5,1.3-3.6,1.3-5.4,1.9c-3.9,1.2-4,1.2-6,1.8c-4.5,1.1-4.7,1.2-7.1,1.7
						c-5.4,1-5.8,1.1-9,1.5c-2.2,0.2-5.1,0.6-7.3,0.8c21.1-2.6,84.5-34.1,103.3-69C258.4,211.5,255.1,217.4,252.2,221.6"/>
					<g>
						
							<linearGradient id="SVGID_00000068636823870223008990000014098835134960672409_" gradientUnits="userSpaceOnUse" x1="35.1554" y1="610.6213" x2="196.2154" y2="476.1515" gradientTransform="matrix(1 0 0 1 0 -415.85)">
							<stop  offset="0" style="stop-color:#1F7B6B"/>
							<stop  offset="1" style="stop-color:#31C4AB"/>
						</linearGradient>
						<path style="fill:url(#SVGID_00000068636823870223008990000014098835134960672409_);" d="M218.1,52.3
							c-0.4-2.1-1.3-4.2-2.5-6.1c0,0,0,0-0.1-0.1l0,0c-2.1-3.1-5.3-5.9-9.8-8.2c-9.4-4.8-20.1-9.1-32.2-11.6
							c3.4,1.1,6.6,2.4,9.6,3.9C229.9,54.1,122,138.6,42.5,154.4c-8.9,1.8-15.7,1.4-20.5,0.4c0.4,12.7,2.6,22.5,3.7,25.5
							c1.8,4.7,14.6,2.2,24.3-0.3c29.7-7.8,68.7-27.1,101.7-49.4c11.8-8,27.3-14.4,5.9,2.8c-13.5,10.8,0,11.3,24.4-8.3
							C223.1,92,221.4,64.1,218.1,52.3L218.1,52.3z"/>
						
							<linearGradient id="SVGID_00000136370640993133397870000017117791379086322084_" gradientUnits="userSpaceOnUse" x1="268.2909" y1="428.4865" x2="47.3609" y2="582.8764" gradientTransform="matrix(1 0 0 1 0 -415.85)">
							<stop  offset="0" style="stop-color:#FFFFFF;stop-opacity:0"/>
							<stop  offset="0.66" style="stop-color:#557872;stop-opacity:0.71"/>
							<stop  offset="1" style="stop-color:#104139"/>
						</linearGradient>
						
							<path style="opacity:0.68;fill:url(#SVGID_00000136370640993133397870000017117791379086322084_);enable-background:new    ;" d="
							M218.1,52.3c-0.4-2.1-1.3-4.2-2.5-6.1c0,0,0,0-0.1-0.1l0,0c-2.1-3.1-5.3-5.9-9.8-8.2c-9.4-4.8-20.1-9.1-32.2-11.6
							c3.4,1.1,6.6,2.4,9.6,3.9C229.9,54.1,122,138.6,42.5,154.4c-8.9,1.8-15.7,1.4-20.5,0.4c0.4,12.7,2.6,22.5,3.7,25.5
							c1.8,4.7,14.6,2.2,24.3-0.3c29.7-7.8,68.7-27.1,101.7-49.4c11.8-8,27.3-14.4,5.9,2.8c-13.5,10.8,0,11.3,24.4-8.3
							C223.1,92,221.4,64.1,218.1,52.3L218.1,52.3z"/>
					</g>
					<g>
						
							<linearGradient id="SVGID_00000003100707512811116330000003451566720555385483_" gradientUnits="userSpaceOnUse" x1="87.2982" y1="596.3387" x2="163.9982" y2="550.5587" gradientTransform="matrix(1 0 0 1 0 -415.85)">
							<stop  offset="0" style="stop-color:#1F7B6B"/>
							<stop  offset="1" style="stop-color:#31C4AB"/>
						</linearGradient>
						<path style="fill:url(#SVGID_00000003100707512811116330000003451566720555385483_);" d="M128.9,152.3
							c-3.6,3.6-2.3,5.6,2.6,4.5c6.1-1.4,12.3-5.6,14.9-8.6c3.5-4,0.4-5.3-4-3.9C139.7,145.1,132.4,148.7,128.9,152.3L128.9,152.3z"
							/>
						
							<linearGradient id="SVGID_00000038390978314758803640000005458776370323475374_" gradientUnits="userSpaceOnUse" x1="162.9584" y1="550.2284" x2="123.7584" y2="575.0784" gradientTransform="matrix(1 0 0 1 0 -415.85)">
							<stop  offset="0" style="stop-color:#FFFFFF;stop-opacity:0"/>
							<stop  offset="1" style="stop-color:#104139"/>
						</linearGradient>
						
							<path style="opacity:0.68;fill:url(#SVGID_00000038390978314758803640000005458776370323475374_);enable-background:new    ;" d="
							M128.9,152.3c-3.6,3.6-2.3,5.6,2.6,4.5c6.1-1.4,12.3-5.6,14.9-8.6c3.5-4,0.4-5.3-4-3.9C139.7,145.1,132.4,148.7,128.9,152.3
							L128.9,152.3z"/>
					</g>
					<g>
						
							<linearGradient id="SVGID_00000182527052174942150510000008126581119582076861_" gradientUnits="userSpaceOnUse" x1="114.3996" y1="692.6746" x2="243.0596" y2="554.5446" gradientTransform="matrix(1 0 0 1 0 -415.85)">
							<stop  offset="0" style="stop-color:#29A38F"/>
							<stop  offset="1" style="stop-color:#31C4AB"/>
						</linearGradient>
						<path style="fill:url(#SVGID_00000182527052174942150510000008126581119582076861_);" d="M267.3,108.1
							c0.1,1.2,0.1,2.7,0.2,3.9c3.4,63.5-138.9,147.2-192.3,141.2c9.2,6.8,18.7,11.7,23.3,12.9c4.7,1.2,10.5,1.3,17,0.6l0,0
							c3.7-0.3,5.7,1.2,1.3,2c-5,0.9-10.3,1-17.8,0.4c-3.9-0.3-4.8,9.5,22.2,3.9c96.8-20.1,133.5-80.5,146.6-106.8l0,0
							c1.5-0.4-1.7,4.7-2.5,8.2c-1.2,5.3,5.5,6.6,8.7-15.9C276.6,141,271.4,119.3,267.3,108.1L267.3,108.1z"/>
						
							<linearGradient id="SVGID_00000083089175101045305070000017748936469495055276_" gradientUnits="userSpaceOnUse" x1="343.5514" y1="521.837" x2="97.7813" y2="676.0571" gradientTransform="matrix(1 0 0 1 0 -415.85)">
							<stop  offset="0" style="stop-color:#FFFFFF;stop-opacity:0"/>
							<stop  offset="0.65" style="stop-color:#557872;stop-opacity:0.71"/>
							<stop  offset="1" style="stop-color:#104139"/>
						</linearGradient>
						
							<path style="opacity:0.68;fill:url(#SVGID_00000083089175101045305070000017748936469495055276_);enable-background:new    ;" d="
							M267.3,108.1c0.1,1.2,0.1,2.7,0.2,3.9c3.4,63.5-138.9,147.2-192.3,141.2c9.2,6.8,18.7,11.7,23.3,12.9c4.7,1.2,10.5,1.3,17,0.6
							l0,0c3.7-0.3,5.7,1.2,1.3,2c-5,0.9-10.3,1-17.8,0.4c-3.9-0.3-4.8,9.5,22.2,3.9c96.8-20.1,133.5-80.5,146.6-106.8l0,0
							c1.5-0.4-1.7,4.7-2.5,8.2c-1.2,5.3,5.5,6.6,8.7-15.9C276.6,141,271.4,119.3,267.3,108.1L267.3,108.1z"/>
					</g>
					<g>
						
							<linearGradient id="SVGID_00000178925605402625100860000013699217288780871819_" gradientUnits="userSpaceOnUse" x1="44.0103" y1="490.6687" x2="112.2603" y2="449.9287" gradientTransform="matrix(1 0 0 1 0 -415.85)">
							<stop  offset="0" style="stop-color:#FFFFFF;stop-opacity:0"/>
							<stop  offset="1" style="stop-color:#FFFFFF;stop-opacity:0.5"/>
						</linearGradient>
						<path style="fill:url(#SVGID_00000178925605402625100860000013699217288780871819_);" d="M114.7,38.7
							c-17,11.1-41.2,20.7-47.9,19c-0.7-0.2-1.2-0.5-1.4-0.9c-0.2-0.3-0.1-0.8,0.2-1.5l0.2-0.3l-0.2-0.1c-0.3,0.3-0.6,0.5-0.9,0.8
							c-0.2,0.5-0.1,1,0.1,1.4c0.3,0.6,1,1,1.9,1.2c0.6,0.1,1.2,0.2,2,0.2c8.7,0,30.6-8.9,46.4-19.2c0-0.3,0-0.5-0.1-0.8L114.7,38.7
							L114.7,38.7z"/>
						
							<linearGradient id="SVGID_00000059997259422121526900000001820831294806598328_" gradientUnits="userSpaceOnUse" x1="34.2868" y1="585.6655" x2="192.5774" y2="453.4999" gradientTransform="matrix(1 0 0 1 0 -415.85)">
							<stop  offset="0" style="stop-color:#FFFFFF;stop-opacity:0"/>
							<stop  offset="1" style="stop-color:#FFFFFF;stop-opacity:0.5"/>
						</linearGradient>
						<path style="fill:url(#SVGID_00000059997259422121526900000001820831294806598328_);" d="M173.4,26.7c3.5,1.1,6.7,2.4,9.6,3.9
							c8.4,4.3,12.1,10.7,11,19.1c-2.2,16-22.2,38.5-53.4,60.1C109.2,131.5,72.5,148,42.5,154c-7.6,1.5-14.5,1.6-20.4,0.4H22
							c0,0.2,0,0.5,0,0.7c2.7,0.6,5.5,0.8,8.6,0.8c3.7,0,7.7-0.4,12-1.3c30.1-6,66.9-22.6,98.3-44.3s51.5-44.3,53.7-60.6
							c1.2-8.7-2.6-15.4-11.3-19.9c-2.1-1.1-4.5-2.1-6.9-3c-2.1-0.5-4.2-0.9-6.4-1.3L173.4,26.7L173.4,26.7z"/>
						
							<linearGradient id="SVGID_00000148646632940729340430000008694558679462422192_" gradientUnits="userSpaceOnUse" x1="74.9" y1="595.8" x2="267.857" y2="595.8" gradientTransform="matrix(1 0 0 1 0 -415.85)">
							<stop  offset="0" style="stop-color:#FFFFFF;stop-opacity:0"/>
							<stop  offset="1" style="stop-color:#FFFFFF;stop-opacity:0.5"/>
						</linearGradient>
						<path style="fill:url(#SVGID_00000148646632940729340430000008694558679462422192_);" d="M267.8,112c0-0.9-0.1-1.9-0.2-3.1
							c-0.3-0.9-0.7-1.9-1-2.8l0.2,2.2c0.1,1.4,0.2,2.6,0.3,3.8c0.7,13.7-5.2,36.5-37.7,67.1c-21.5,20.3-51,40.1-80.9,54.3
							c-29.8,14.2-56.6,21.3-73.3,19.4h-0.3v0.1c0.3,0.2,0.6,0.4,0.9,0.6c1.7,0.2,3.4,0.2,5.3,0.2c37.4,0,105.9-33.8,148.9-74.2
							C247.9,162.7,269.1,137.1,267.8,112L267.8,112z"/>
					</g>
				</g>
			</g>
		</g>
	</g>
</g>
</svg>
